<svg id="visual" viewBox="0 0 900 600" width="900" height="600" xmlns="http://www.w3.org/2000/svg" xmlns:xlink="http://www.w3.org/1999/xlink" version="1.1"><rect x="0" y="0" width="900" height="600" fill="#001122"></rect><path d="M0 89L18.8 81.7C37.7 74.3 75.3 59.7 112.8 56C150.3 52.3 187.7 59.7 225.2 66.8C262.7 74 300.3 81 337.8 78.5C375.3 76 412.7 64 450.2 57.3C487.7 50.7 525.3 49.3 562.8 47C600.3 44.7 637.7 41.3 675.2 39.5C712.7 37.7 750.3 37.3 787.8 36.3C825.3 35.3 862.7 33.7 881.3 32.8L900 32" fill="none" stroke-linecap="round" stroke-linejoin="miter" stroke="#58CC02" stroke-width="6"></path></svg>